<svg width="342" height="18" viewBox="0 0 342 18" fill="none" xmlns="http://www.w3.org/2000/svg">
<path d="M13.8556 12.9838L10 6.55567V2.99817H10.5C10.6326 2.99817 10.7598 2.94549 10.8536 2.85172C10.9473 2.75795 11 2.63078 11 2.49817C11 2.36556 10.9473 2.23838 10.8536 2.14462C10.7598 2.05085 10.6326 1.99817 10.5 1.99817H5.50001C5.36741 1.99817 5.24023 2.05085 5.14646 2.14462C5.05269 2.23838 5.00001 2.36556 5.00001 2.49817C5.00001 2.63078 5.05269 2.75795 5.14646 2.85172C5.24023 2.94549 5.36741 2.99817 5.50001 2.99817H6.00001V6.55567L2.14439 12.9838C2.05345 13.1354 2.00434 13.3084 2.00204 13.4852C1.99974 13.6619 2.04435 13.8362 2.13131 13.9901C2.21827 14.144 2.34449 14.2721 2.49709 14.3614C2.64969 14.4506 2.82323 14.4978 3.00001 14.4982H13C13.177 14.4982 13.3507 14.4512 13.5036 14.3621C13.6565 14.273 13.7829 14.1449 13.8701 13.9909C13.9573 13.8369 14.0021 13.6626 13.9999 13.4856C13.9977 13.3087 13.9485 13.1355 13.8575 12.9838H13.8556ZM8.22564 10.3019C7.23126 9.79879 6.28501 9.53192 5.39939 9.50129L6.92876 6.95129C6.97553 6.87378 7.00017 6.78494 7.00001 6.69442V2.99817H9.00001V6.69442C8.99986 6.78494 9.0245 6.87378 9.07126 6.95129L11.46 10.9357C10.7125 11.0819 9.64314 11.0194 8.22564 10.3019Z" fill="#8472FF"/>
<path d="M18.3906 4.10754V2.85754H27.375V4.10754H23.5938V14.4982H22.1875V4.10754H18.3906ZM30.0781 9.67004V14.4982H28.75V2.85754H30.0781V7.40442C30.6484 6.50598 31.4766 6.09192 32.5 6.09192C34.1641 6.09192 35.5312 7.17786 35.5312 9.37317V14.4982H34.2031V9.46692C34.2031 8.03723 33.4844 7.31067 32.25 7.31067C31.0469 7.31067 30.0781 8.00598 30.0781 9.67004ZM37.5 14.4982V6.24817H38.8281V14.4982H37.5ZM38.1641 4.63879C37.6641 4.63879 37.2578 4.23254 37.2578 3.73254C37.2578 3.23254 37.6641 2.82629 38.1641 2.82629C38.6641 2.82629 39.0703 3.23254 39.0703 3.73254C39.0703 4.23254 38.6641 4.63879 38.1641 4.63879ZM43.6719 14.6857C41.9062 14.6857 40.5156 13.8263 40.4062 12.0294H41.7188C41.8125 13.0138 42.4844 13.545 43.6406 13.545C44.7812 13.545 45.4922 13.0138 45.4922 12.2794C45.4922 11.6544 44.9844 11.295 44.25 11.1232L42.9219 10.8107C41.3906 10.4513 40.5938 9.67004 40.5938 8.46692C40.5938 7.06067 41.8203 6.06067 43.5859 6.06067C45.3047 6.06067 46.5938 7.07629 46.6406 8.71692H45.3438C45.3281 7.84192 44.6484 7.20129 43.5859 7.20129C42.5703 7.20129 41.9219 7.76379 41.9219 8.46692C41.9219 9.09192 42.4062 9.45911 43.2031 9.64661L44.5312 9.95911C46.1094 10.3341 46.8281 11.0607 46.8281 12.2482C46.8281 13.7794 45.4688 14.6857 43.6719 14.6857ZM52.3906 14.4982V6.24817H53.7188V14.4982H52.3906ZM53.0547 4.63879C52.5547 4.63879 52.1484 4.23254 52.1484 3.73254C52.1484 3.23254 52.5547 2.82629 53.0547 2.82629C53.5547 2.82629 53.9609 3.23254 53.9609 3.73254C53.9609 4.23254 53.5547 4.63879 53.0547 4.63879ZM58.5625 14.6857C56.7969 14.6857 55.4062 13.8263 55.2969 12.0294H56.6094C56.7031 13.0138 57.375 13.545 58.5312 13.545C59.6719 13.545 60.3828 13.0138 60.3828 12.2794C60.3828 11.6544 59.875 11.295 59.1406 11.1232L57.8125 10.8107C56.2812 10.4513 55.4844 9.67004 55.4844 8.46692C55.4844 7.06067 56.7109 6.06067 58.4766 6.06067C60.1953 6.06067 61.4844 7.07629 61.5312 8.71692H60.2344C60.2188 7.84192 59.5391 7.20129 58.4766 7.20129C57.4609 7.20129 56.8125 7.76379 56.8125 8.46692C56.8125 9.09192 57.2969 9.45911 58.0938 9.64661L59.4219 9.95911C61 10.3341 61.7188 11.0607 61.7188 12.2482C61.7188 13.7794 60.3594 14.6857 58.5625 14.6857ZM69.7969 14.6232C68.1562 14.6232 66.9219 13.7716 66.9219 12.1232C66.9219 10.2325 68.5469 9.88879 70.2031 9.67004C71.7734 9.45911 72.2812 9.52161 72.2812 8.88879V8.81067C72.2812 7.91223 71.6094 7.26379 70.4531 7.26379C69.3047 7.26379 68.5078 7.89661 68.4453 8.71692H67.0938C67.1641 7.20911 68.5 6.09192 70.4531 6.09192C72.375 6.09192 73.5938 7.17786 73.5938 8.81067V14.4982H72.2812V13.3263H72.25C71.9453 13.92 71.2969 14.6232 69.7969 14.6232ZM69.9844 13.4357C71.6094 13.4357 72.2812 12.4513 72.2812 11.3732V10.3419C72.0781 10.5294 71.0859 10.6779 70.1406 10.8107C69.1875 10.9435 68.2812 11.2716 68.2812 12.2013C68.2812 12.9747 68.9297 13.4357 69.9844 13.4357ZM76.8906 9.67004V14.4982H75.5625V6.24817H76.8594V7.45911C77.4297 6.52161 78.2656 6.09192 79.3125 6.09192C80.9766 6.09192 82.3438 7.17786 82.3438 9.37317V14.4982H81.0156V9.46692C81.0156 8.03723 80.2969 7.31067 79.0625 7.31067C77.8594 7.31067 76.8906 8.00598 76.8906 9.67004ZM91.7188 14.6857C89.2969 14.6857 87.8906 12.8732 87.8906 10.3888C87.8906 7.88098 89.4375 6.06067 91.625 6.06067C93.9219 6.06067 95.375 7.82629 95.375 10.3888V10.756H89.2031C89.2656 12.3732 90.1562 13.4825 91.7188 13.4825C92.8906 13.4825 93.6562 12.8888 93.9062 12.0294H95.2344C94.9219 13.6075 93.5156 14.6857 91.7188 14.6857ZM89.2188 9.61536H94.0469C93.9062 8.16223 92.9844 7.24817 91.625 7.24817C90.2734 7.24817 89.3594 8.16223 89.2188 9.61536ZM95.6719 14.4982L98.75 10.295L95.8516 6.24817H97.4141L98.5312 7.87317C98.8672 8.35754 99.1875 8.83411 99.5078 9.31848C99.8359 8.83411 100.164 8.35754 100.5 7.87317L101.633 6.24817H103.172L100.273 10.2872L103.312 14.4982H101.758L100.445 12.6232C100.125 12.1622 99.8125 11.7091 99.5 11.2482C99.1875 11.7091 98.8672 12.1622 98.5469 12.6232L97.2188 14.4982H95.6719ZM104.531 17.7638V6.24817H105.828V7.46692H105.844C106.375 6.54504 107.383 6.09192 108.453 6.09192C110.602 6.09192 112.031 7.82629 112.031 10.3732C112.031 12.9122 110.602 14.6544 108.453 14.6544C107.383 14.6544 106.469 14.2013 105.875 13.2482H105.859V17.7638H104.531ZM108.25 13.4591C109.68 13.4591 110.688 12.3966 110.688 10.3732C110.688 8.34973 109.68 7.27942 108.25 7.27942C106.719 7.27942 105.75 8.50598 105.75 10.3732C105.75 12.2404 106.719 13.4591 108.25 13.4591ZM116.984 14.6857C114.562 14.6857 113.156 12.8732 113.156 10.3888C113.156 7.88098 114.703 6.06067 116.891 6.06067C119.188 6.06067 120.641 7.82629 120.641 10.3888V10.756H114.469C114.531 12.3732 115.422 13.4825 116.984 13.4825C118.156 13.4825 118.922 12.8888 119.172 12.0294H120.5C120.188 13.6075 118.781 14.6857 116.984 14.6857ZM114.484 9.61536H119.312C119.172 8.16223 118.25 7.24817 116.891 7.24817C115.539 7.24817 114.625 8.16223 114.484 9.61536ZM122.156 14.4982V6.24817H123.422V7.54504H123.453C123.758 6.69348 124.406 6.12317 125.438 6.12317C125.68 6.12317 125.891 6.15442 126 6.17004V7.49817C125.891 7.46692 125.57 7.40442 125.188 7.40442C124.273 7.40442 123.484 8.02161 123.484 9.42004V14.4982H122.156ZM127.312 14.4982V6.24817H128.641V14.4982H127.312ZM127.977 4.63879C127.477 4.63879 127.07 4.23254 127.07 3.73254C127.07 3.23254 127.477 2.82629 127.977 2.82629C128.477 2.82629 128.883 3.23254 128.883 3.73254C128.883 4.23254 128.477 4.63879 127.977 4.63879ZM130.609 14.4982V6.24817H131.906V7.58411C132.43 6.61536 133.344 6.09192 134.352 6.09192C135.484 6.09192 136.375 6.74817 136.719 7.57629C137.172 6.73254 138.094 6.09192 139.32 6.09192C140.828 6.09192 142.062 7.06067 142.062 9.09192V14.4982H140.734V9.09192C140.734 7.81067 139.891 7.31067 138.945 7.31067C137.734 7.31067 137 8.13098 137 9.24817V14.4982H135.672V8.95129C135.672 7.96692 134.93 7.31067 133.93 7.31067C132.891 7.31067 131.938 8.04504 131.938 9.46692V14.4982H130.609ZM147.438 14.6857C145.016 14.6857 143.609 12.8732 143.609 10.3888C143.609 7.88098 145.156 6.06067 147.344 6.06067C149.641 6.06067 151.094 7.82629 151.094 10.3888V10.756H144.922C144.984 12.3732 145.875 13.4825 147.438 13.4825C148.609 13.4825 149.375 12.8888 149.625 12.0294H150.953C150.641 13.6075 149.234 14.6857 147.438 14.6857ZM144.938 9.61536H149.766C149.625 8.16223 148.703 7.24817 147.344 7.24817C145.992 7.24817 145.078 8.16223 144.938 9.61536ZM153.938 9.67004V14.4982H152.609V6.24817H153.906V7.45911C154.477 6.52161 155.312 6.09192 156.359 6.09192C158.023 6.09192 159.391 7.17786 159.391 9.37317V14.4982H158.062V9.46692C158.062 8.03723 157.344 7.31067 156.109 7.31067C154.906 7.31067 153.938 8.00598 153.938 9.67004ZM164.961 6.24817V7.38879H163.289V12.4982C163.289 13.1388 163.516 13.3575 164.195 13.3575H164.961V14.4982H164.07C162.656 14.4982 161.961 13.881 161.961 12.6388V7.38879H160.492V6.24817H161.961V3.99817H163.289V6.24817H164.961ZM174.266 14.6544C173.195 14.6544 172.25 14.2013 171.656 13.2482H171.641V14.4982H170.344V2.85754H171.672V7.46692H171.688C172.219 6.54504 173.195 6.09192 174.266 6.09192C176.414 6.09192 177.844 7.82629 177.844 10.3732C177.844 12.9122 176.414 14.6544 174.266 14.6544ZM174.062 13.4591C175.492 13.4591 176.5 12.3966 176.5 10.3732C176.5 8.34973 175.492 7.27942 174.062 7.27942C172.531 7.27942 171.562 8.50598 171.562 10.3732C171.562 12.2404 172.531 13.4591 174.062 13.4591ZM182.422 14.6544C180.758 14.6544 179.391 13.5685 179.391 11.3732V6.24817H180.719V11.2794C180.719 12.7091 181.438 13.4357 182.672 13.4357C183.875 13.4357 184.844 12.7404 184.844 11.0763V6.24817H186.172V14.4982H184.875V13.2872C184.305 14.2247 183.469 14.6544 182.422 14.6544ZM188.141 14.4982V6.24817H189.469V14.4982H188.141ZM188.805 4.63879C188.305 4.63879 187.898 4.23254 187.898 3.73254C187.898 3.23254 188.305 2.82629 188.805 2.82629C189.305 2.82629 189.711 3.23254 189.711 3.73254C189.711 4.23254 189.305 4.63879 188.805 4.63879ZM192.766 2.85754V14.4982H191.438V2.85754H192.766ZM198.414 6.24817V7.38879H196.742V12.4982C196.742 13.1388 196.969 13.3575 197.648 13.3575H198.414V14.4982H197.523C196.109 14.4982 195.414 13.881 195.414 12.6388V7.38879H193.945V6.24817H195.414V3.99817H196.742V6.24817H198.414ZM203.797 14.4982V6.24817H205.125V14.4982H203.797ZM204.461 4.63879C203.961 4.63879 203.555 4.23254 203.555 3.73254C203.555 3.23254 203.961 2.82629 204.461 2.82629C204.961 2.82629 205.367 3.23254 205.367 3.73254C205.367 4.23254 204.961 4.63879 204.461 4.63879ZM208.422 9.67004V14.4982H207.094V6.24817H208.391V7.45911C208.961 6.52161 209.797 6.09192 210.844 6.09192C212.508 6.09192 213.875 7.17786 213.875 9.37317V14.4982H212.547V9.46692C212.547 8.03723 211.828 7.31067 210.594 7.31067C209.391 7.31067 208.422 8.00598 208.422 9.67004Z" fill="black" fill-opacity="0.4"/>
<path d="M219.25 4.10754V2.85754H228.234V4.10754H224.453V14.4982H223.047V4.10754H219.25ZM230.938 9.67004V14.4982H229.609V2.85754H230.938V7.40442C231.508 6.50598 232.336 6.09192 233.359 6.09192C235.023 6.09192 236.391 7.17786 236.391 9.37317V14.4982H235.062V9.46692C235.062 8.03723 234.344 7.31067 233.109 7.31067C231.906 7.31067 230.938 8.00598 230.938 9.67004ZM241.766 14.6857C239.344 14.6857 237.938 12.8732 237.938 10.3888C237.938 7.88098 239.484 6.06067 241.672 6.06067C243.969 6.06067 245.422 7.82629 245.422 10.3888V10.756H239.25C239.312 12.3732 240.203 13.4825 241.766 13.4825C242.938 13.4825 243.703 12.8888 243.953 12.0294H245.281C244.969 13.6075 243.562 14.6857 241.766 14.6857ZM239.266 9.61536H244.094C243.953 8.16223 243.031 7.24817 241.672 7.24817C240.32 7.24817 239.406 8.16223 239.266 9.61536ZM249.812 14.6857C248.047 14.6857 246.656 13.8263 246.547 12.0294H247.859C247.953 13.0138 248.625 13.545 249.781 13.545C250.922 13.545 251.633 13.0138 251.633 12.2794C251.633 11.6544 251.125 11.295 250.391 11.1232L249.062 10.8107C247.531 10.4513 246.734 9.67004 246.734 8.46692C246.734 7.06067 247.961 6.06067 249.727 6.06067C251.445 6.06067 252.734 7.07629 252.781 8.71692H251.484C251.469 7.84192 250.789 7.20129 249.727 7.20129C248.711 7.20129 248.062 7.76379 248.062 8.46692C248.062 9.09192 248.547 9.45911 249.344 9.64661L250.672 9.95911C252.25 10.3341 252.969 11.0607 252.969 12.2482C252.969 13.7794 251.609 14.6857 249.812 14.6857ZM254.359 17.7638V16.5919H255.172C255.68 16.5919 256.023 16.2872 256.289 15.5997L256.742 14.4279L253.547 6.24817H254.984L256.766 10.9982C257 11.6154 257.219 12.2325 257.43 12.8497C257.648 12.2325 257.875 11.6154 258.102 10.9982L259.852 6.24817H261.266L257.461 16.0294C257.031 17.1388 256.211 17.7638 255.172 17.7638H254.359ZM265.203 14.6857C263.438 14.6857 262.047 13.8263 261.938 12.0294H263.25C263.344 13.0138 264.016 13.545 265.172 13.545C266.312 13.545 267.023 13.0138 267.023 12.2794C267.023 11.6544 266.516 11.295 265.781 11.1232L264.453 10.8107C262.922 10.4513 262.125 9.67004 262.125 8.46692C262.125 7.06067 263.352 6.06067 265.117 6.06067C266.836 6.06067 268.125 7.07629 268.172 8.71692H266.875C266.859 7.84192 266.18 7.20129 265.117 7.20129C264.102 7.20129 263.453 7.76379 263.453 8.46692C263.453 9.09192 263.938 9.45911 264.734 9.64661L266.062 9.95911C267.641 10.3341 268.359 11.0607 268.359 12.2482C268.359 13.7794 267 14.6857 265.203 14.6857ZM277.688 14.4982H274.094V2.85754H277.844C281.234 2.85754 283.266 5.04504 283.266 8.65442C283.266 12.295 281.234 14.4982 277.688 14.4982ZM275.5 13.2482H277.594C280.484 13.2482 281.859 11.4982 281.859 8.65442C281.859 5.84192 280.484 4.10754 277.75 4.10754H275.5V13.2482ZM288.359 14.6857C285.938 14.6857 284.531 12.8732 284.531 10.3888C284.531 7.88098 286.078 6.06067 288.266 6.06067C290.562 6.06067 292.016 7.82629 292.016 10.3888V10.756H285.844C285.906 12.3732 286.797 13.4825 288.359 13.4825C289.531 13.4825 290.297 12.8888 290.547 12.0294H291.875C291.562 13.6075 290.156 14.6857 288.359 14.6857ZM285.859 9.61536H290.688C290.547 8.16223 289.625 7.24817 288.266 7.24817C286.914 7.24817 286 8.16223 285.859 9.61536ZM293.531 14.4982V6.24817H294.828V7.58411C295.352 6.61536 296.266 6.09192 297.273 6.09192C298.406 6.09192 299.297 6.74817 299.641 7.57629C300.094 6.73254 301.016 6.09192 302.242 6.09192C303.75 6.09192 304.984 7.06067 304.984 9.09192V14.4982H303.656V9.09192C303.656 7.81067 302.812 7.31067 301.867 7.31067C300.656 7.31067 299.922 8.13098 299.922 9.24817V14.4982H298.594V8.95129C298.594 7.96692 297.852 7.31067 296.852 7.31067C295.812 7.31067 294.859 8.04504 294.859 9.46692V14.4982H293.531ZM310.359 14.6857C308.07 14.6857 306.531 12.9044 306.531 10.3888C306.531 7.85754 308.07 6.06067 310.359 6.06067C312.648 6.06067 314.188 7.85754 314.188 10.3888C314.188 12.9044 312.648 14.6857 310.359 14.6857ZM310.359 13.4825C311.922 13.4825 312.844 12.256 312.844 10.3888C312.844 8.50598 311.914 7.26379 310.359 7.26379C308.805 7.26379 307.875 8.49817 307.875 10.3888C307.875 12.2638 308.797 13.4825 310.359 13.4825ZM318.609 14.6857C316.844 14.6857 315.453 13.8263 315.344 12.0294H316.656C316.75 13.0138 317.422 13.545 318.578 13.545C319.719 13.545 320.43 13.0138 320.43 12.2794C320.43 11.6544 319.922 11.295 319.188 11.1232L317.859 10.8107C316.328 10.4513 315.531 9.67004 315.531 8.46692C315.531 7.06067 316.758 6.06067 318.523 6.06067C320.242 6.06067 321.531 7.07629 321.578 8.71692H320.281C320.266 7.84192 319.586 7.20129 318.523 7.20129C317.508 7.20129 316.859 7.76379 316.859 8.46692C316.859 9.09192 317.344 9.45911 318.141 9.64661L319.469 9.95911C321.047 10.3341 321.766 11.0607 321.766 12.2482C321.766 13.7794 320.406 14.6857 318.609 14.6857ZM334.688 14.4982L333.812 13.6232L335.461 11.9825C336.125 11.3263 336.859 10.631 337.547 9.99036C337.07 10.0138 336.586 10.0294 336.109 10.0294H328.094V8.77942H336.109C336.586 8.77942 337.07 8.79504 337.547 8.81848C336.859 8.17786 336.125 7.48254 335.461 6.82629L333.812 5.18567L334.688 4.31067L339.781 9.40442L334.688 14.4982Z" fill="black"/>
</svg>
