<svg width="302" height="60" viewBox="0 0 302 60" fill="none" xmlns="http://www.w3.org/2000/svg">
<path d="M18.811 59.8772C8.907 59.8772 2.97532 54.7507 2.97532 46.1887H9.92693C9.98061 51.0199 13.3088 53.8918 18.8647 53.8918C23.857 53.8918 27.1583 51.6373 27.1583 48.1212C27.1583 45.303 25.0648 43.6657 19.7236 42.4311L15.4292 41.4648C7.43079 39.6397 3.75369 36.1236 3.75369 30.514C3.75369 23.3746 9.63169 18.597 18.4621 18.597C27.3999 18.597 32.9558 23.4282 33.1974 31.3729H26.4605C26.1652 27.159 23.1055 24.6092 18.4353 24.6092C14.0066 24.6092 10.8663 26.8906 10.8663 30.1651C10.8663 32.8491 12.933 34.3522 18.14 35.56L22.1929 36.4994C30.4865 38.3514 34.2173 41.8138 34.2173 47.6918C34.2173 55.1533 28.2856 59.8772 18.811 59.8772ZM51.6902 59.8772C43.1819 59.8772 37.8676 53.6771 37.8676 45.0883C37.8676 36.4726 43.4772 30.2456 51.4218 30.2456C59.5813 30.2456 65.003 36.2847 65.003 44.9809V46.8329H44.4971C44.6581 51.4494 47.2885 54.536 51.8513 54.536C55.26 54.536 57.5414 52.8988 58.3198 50.4831H64.6541C63.5804 56.0391 58.3198 59.8772 51.6902 59.8772ZM44.5508 42.1627H58.5077C58.0782 38.1098 55.4479 35.6137 51.5292 35.6137C47.6105 35.6137 45.007 38.1098 44.5508 42.1627ZM78.6378 59.6893C73.0014 59.6893 68.8411 56.8443 68.8411 51.181C68.8411 44.7393 74.1286 43.1558 79.9798 42.5384C85.2405 41.948 87.0388 41.8674 87.0388 39.9349V39.7202C87.0388 37.3046 85.1063 35.5868 81.8586 35.5868C78.5573 35.5868 76.3564 37.3046 76.1685 39.6934H69.6463C69.9684 34.0569 74.5849 30.3262 81.9928 30.3262C89.3739 30.3262 93.7488 34.0033 93.7488 39.9081V59.233H87.0924V55.2338H86.9851C85.6431 57.7568 83.2543 59.6893 78.6378 59.6893ZM80.3019 54.6702C84.7305 54.6702 87.0656 52.0399 87.0656 48.7385V45.6787C86.2336 46.2155 83.6032 46.645 80.8118 47.0744C77.9131 47.5039 75.4438 48.5506 75.4438 51.1273C75.4438 53.355 77.3495 54.6702 80.3019 54.6702ZM99.7342 59.233V30.8898H106.256V35.5868H106.337C107.384 32.3392 109.558 30.6214 113.208 30.6214C114.121 30.6214 114.872 30.6751 115.409 30.7288V36.741C114.899 36.6604 113.557 36.5262 112.215 36.5262C108.994 36.5262 106.498 38.754 106.498 43.1826V59.233H99.7342ZM131.486 59.8772C123.192 59.8772 117.637 53.8382 117.637 45.0883C117.637 36.3384 123.192 30.2456 131.486 30.2456C138.599 30.2456 143.752 34.7279 144.343 41.0354H137.713C137.203 38.0025 135.083 35.8821 131.567 35.8821C127.138 35.8821 124.481 39.4787 124.481 45.0883C124.481 50.671 127.111 54.2408 131.567 54.2408C135.11 54.2408 137.015 52.2009 137.659 49.0606H144.343C143.859 55.2607 138.652 59.8772 131.486 59.8772ZM155.669 43.2094V59.233H148.905V19.2412H155.669V35.05C157.602 31.9634 160.447 30.3262 164.258 30.3262C170.19 30.3262 174.377 34.2448 174.377 41.5185V59.233H167.586V42.5921C167.586 38.4319 165.493 36.2578 161.869 36.2578C158.326 36.2578 155.669 38.3782 155.669 43.2094Z" fill="white"/>
<rect x="197.829" y="25.4984" width="6.16621" height="27.4693" fill="#DADADA"/>
<rect x="214.647" y="36.1499" width="6.16621" height="27.4693" transform="rotate(90 214.647 36.1499)" fill="#DADADA"/>
<path d="M244.583 59.8772C233.551 59.8772 225.741 51.7446 225.741 39.2639C225.741 26.7027 233.551 18.597 244.583 18.597C253.601 18.597 260.472 24.2066 261.814 32.9565H254.594C253.52 27.8569 249.763 24.9581 244.636 24.9581C237.309 24.9581 232.88 30.6214 232.88 39.2639C232.88 47.8528 237.282 53.5161 244.636 53.5161C249.736 53.5161 253.494 50.6442 254.621 45.5714H261.814C260.472 54.2944 253.601 59.8772 244.583 59.8772ZM274.348 59.233V30.8898H266.296V25.4412H267.531C272.121 25.4412 274.67 23.5624 275.18 19.268H281.193V59.233H274.348Z" fill="url(#paint0_linear_1_130)"/>
<path d="M288.58 3.38626C288.652 3.07556 289.38 3.07556 289.453 3.38626C289.713 4.49463 290.076 5.44759 290.583 6.31519C291.716 8.25446 293.33 9.86869 295.269 11.0019C296.137 11.5089 297.09 11.8718 298.198 12.1315C298.509 12.2044 298.509 12.9322 298.198 13.005C297.09 13.2648 296.137 13.6277 295.269 14.1346C293.33 15.2679 291.716 16.8821 290.583 18.8214C290.076 19.689 289.713 20.6419 289.453 21.7503C289.38 22.061 288.652 22.061 288.58 21.7503C288.32 20.6419 287.957 19.689 287.45 18.8214C286.317 16.8821 284.702 15.2679 282.763 14.1346C281.896 13.6277 280.943 13.2648 279.834 13.005C279.524 12.9322 279.524 12.2044 279.834 12.1315C280.943 11.8718 281.896 11.5089 282.763 11.0019C284.702 9.86869 286.317 8.25446 287.45 6.31519C287.957 5.44759 288.32 4.49463 288.58 3.38626Z" fill="#8471FF"/>
<defs>
<linearGradient id="paint0_linear_1_130" x1="254.308" y1="19.233" x2="254.308" y2="59.233" gradientUnits="userSpaceOnUse">
<stop stop-color="#7E6AFF"/>
<stop offset="1" stop-color="#AA9DFF"/>
</linearGradient>
</defs>
</svg>
