<svg width="332" height="18" viewBox="0 0 332 18" fill="none" xmlns="http://www.w3.org/2000/svg">
<path d="M13.8556 12.9839L10 6.55573V2.99823H10.5C10.6326 2.99823 10.7598 2.94555 10.8536 2.85178C10.9473 2.75802 11 2.63084 11 2.49823C11 2.36562 10.9473 2.23844 10.8536 2.14468C10.7598 2.05091 10.6326 1.99823 10.5 1.99823H5.50001C5.36741 1.99823 5.24023 2.05091 5.14646 2.14468C5.05269 2.23844 5.00001 2.36562 5.00001 2.49823C5.00001 2.63084 5.05269 2.75802 5.14646 2.85178C5.24023 2.94555 5.36741 2.99823 5.50001 2.99823H6.00001V6.55573L2.14439 12.9839C2.05345 13.1355 2.00434 13.3085 2.00204 13.4852C1.99974 13.662 2.04435 13.8362 2.13131 13.9901C2.21827 14.1441 2.34449 14.2722 2.49709 14.3614C2.64969 14.4507 2.82323 14.4979 3.00001 14.4982H13C13.177 14.4982 13.3507 14.4513 13.5036 14.3621C13.6565 14.273 13.7829 14.1449 13.8701 13.991C13.9573 13.837 14.0021 13.6626 13.9999 13.4857C13.9977 13.3088 13.9485 13.1356 13.8575 12.9839H13.8556ZM8.22564 10.302C7.23126 9.79885 6.28501 9.53198 5.39939 9.50136L6.92876 6.95135C6.97553 6.87384 7.00017 6.78501 7.00001 6.69448V2.99823H9.00001V6.69448C8.99986 6.78501 9.0245 6.87384 9.07126 6.95135L11.46 10.9357C10.7125 11.082 9.64314 11.0195 8.22564 10.302Z" fill="#8472FF"/>
<path d="M18.3906 4.1076V2.8576H27.375V4.1076H23.5938V14.4982H22.1875V4.1076H18.3906ZM30.0781 9.6701V14.4982H28.75V2.8576H30.0781V7.40448C30.6484 6.50604 31.4766 6.09198 32.5 6.09198C34.1641 6.09198 35.5312 7.17792 35.5312 9.37323V14.4982H34.2031V9.46698C34.2031 8.03729 33.4844 7.31073 32.25 7.31073C31.0469 7.31073 30.0781 8.00604 30.0781 9.6701ZM37.5 14.4982V6.24823H38.8281V14.4982H37.5ZM38.1641 4.63885C37.6641 4.63885 37.2578 4.2326 37.2578 3.7326C37.2578 3.2326 37.6641 2.82635 38.1641 2.82635C38.6641 2.82635 39.0703 3.2326 39.0703 3.7326C39.0703 4.2326 38.6641 4.63885 38.1641 4.63885ZM43.6719 14.6857C41.9062 14.6857 40.5156 13.8264 40.4062 12.0295H41.7188C41.8125 13.0139 42.4844 13.5451 43.6406 13.5451C44.7812 13.5451 45.4922 13.0139 45.4922 12.2795C45.4922 11.6545 44.9844 11.2951 44.25 11.1232L42.9219 10.8107C41.3906 10.4514 40.5938 9.6701 40.5938 8.46698C40.5938 7.06073 41.8203 6.06073 43.5859 6.06073C45.3047 6.06073 46.5938 7.07635 46.6406 8.71698H45.3438C45.3281 7.84198 44.6484 7.20135 43.5859 7.20135C42.5703 7.20135 41.9219 7.76385 41.9219 8.46698C41.9219 9.09198 42.4062 9.45917 43.2031 9.64667L44.5312 9.95917C46.1094 10.3342 46.8281 11.0607 46.8281 12.2482C46.8281 13.7795 45.4688 14.6857 43.6719 14.6857ZM52.3906 14.4982V6.24823H53.7188V14.4982H52.3906ZM53.0547 4.63885C52.5547 4.63885 52.1484 4.2326 52.1484 3.7326C52.1484 3.2326 52.5547 2.82635 53.0547 2.82635C53.5547 2.82635 53.9609 3.2326 53.9609 3.7326C53.9609 4.2326 53.5547 4.63885 53.0547 4.63885ZM58.5625 14.6857C56.7969 14.6857 55.4062 13.8264 55.2969 12.0295H56.6094C56.7031 13.0139 57.375 13.5451 58.5312 13.5451C59.6719 13.5451 60.3828 13.0139 60.3828 12.2795C60.3828 11.6545 59.875 11.2951 59.1406 11.1232L57.8125 10.8107C56.2812 10.4514 55.4844 9.6701 55.4844 8.46698C55.4844 7.06073 56.7109 6.06073 58.4766 6.06073C60.1953 6.06073 61.4844 7.07635 61.5312 8.71698H60.2344C60.2188 7.84198 59.5391 7.20135 58.4766 7.20135C57.4609 7.20135 56.8125 7.76385 56.8125 8.46698C56.8125 9.09198 57.2969 9.45917 58.0938 9.64667L59.4219 9.95917C61 10.3342 61.7188 11.0607 61.7188 12.2482C61.7188 13.7795 60.3594 14.6857 58.5625 14.6857ZM69.7969 14.6232C68.1562 14.6232 66.9219 13.7717 66.9219 12.1232C66.9219 10.2326 68.5469 9.88885 70.2031 9.6701C71.7734 9.45917 72.2812 9.52167 72.2812 8.88885V8.81073C72.2812 7.91229 71.6094 7.26385 70.4531 7.26385C69.3047 7.26385 68.5078 7.89667 68.4453 8.71698H67.0938C67.1641 7.20917 68.5 6.09198 70.4531 6.09198C72.375 6.09198 73.5938 7.17792 73.5938 8.81073V14.4982H72.2812V13.3264H72.25C71.9453 13.9201 71.2969 14.6232 69.7969 14.6232ZM69.9844 13.4357C71.6094 13.4357 72.2812 12.4514 72.2812 11.3732V10.342C72.0781 10.5295 71.0859 10.6779 70.1406 10.8107C69.1875 10.9435 68.2812 11.2717 68.2812 12.2014C68.2812 12.9748 68.9297 13.4357 69.9844 13.4357ZM76.8906 9.6701V14.4982H75.5625V6.24823H76.8594V7.45917C77.4297 6.52167 78.2656 6.09198 79.3125 6.09198C80.9766 6.09198 82.3438 7.17792 82.3438 9.37323V14.4982H81.0156V9.46698C81.0156 8.03729 80.2969 7.31073 79.0625 7.31073C77.8594 7.31073 76.8906 8.00604 76.8906 9.6701ZM91.7188 14.6857C89.2969 14.6857 87.8906 12.8732 87.8906 10.3889C87.8906 7.88104 89.4375 6.06073 91.625 6.06073C93.9219 6.06073 95.375 7.82635 95.375 10.3889V10.756H89.2031C89.2656 12.3732 90.1562 13.4826 91.7188 13.4826C92.8906 13.4826 93.6562 12.8889 93.9062 12.0295H95.2344C94.9219 13.6076 93.5156 14.6857 91.7188 14.6857ZM89.2188 9.61542H94.0469C93.9062 8.16229 92.9844 7.24823 91.625 7.24823C90.2734 7.24823 89.3594 8.16229 89.2188 9.61542ZM95.6719 14.4982L98.75 10.2951L95.8516 6.24823H97.4141L98.5312 7.87323C98.8672 8.3576 99.1875 8.83417 99.5078 9.31854C99.8359 8.83417 100.164 8.3576 100.5 7.87323L101.633 6.24823H103.172L100.273 10.2873L103.312 14.4982H101.758L100.445 12.6232C100.125 12.1623 99.8125 11.7092 99.5 11.2482C99.1875 11.7092 98.8672 12.1623 98.5469 12.6232L97.2188 14.4982H95.6719ZM104.531 17.7639V6.24823H105.828V7.46698H105.844C106.375 6.5451 107.383 6.09198 108.453 6.09198C110.602 6.09198 112.031 7.82635 112.031 10.3732C112.031 12.9123 110.602 14.6545 108.453 14.6545C107.383 14.6545 106.469 14.2014 105.875 13.2482H105.859V17.7639H104.531ZM108.25 13.4592C109.68 13.4592 110.688 12.3967 110.688 10.3732C110.688 8.34979 109.68 7.27948 108.25 7.27948C106.719 7.27948 105.75 8.50604 105.75 10.3732C105.75 12.2404 106.719 13.4592 108.25 13.4592ZM116.984 14.6857C114.562 14.6857 113.156 12.8732 113.156 10.3889C113.156 7.88104 114.703 6.06073 116.891 6.06073C119.188 6.06073 120.641 7.82635 120.641 10.3889V10.756H114.469C114.531 12.3732 115.422 13.4826 116.984 13.4826C118.156 13.4826 118.922 12.8889 119.172 12.0295H120.5C120.188 13.6076 118.781 14.6857 116.984 14.6857ZM114.484 9.61542H119.312C119.172 8.16229 118.25 7.24823 116.891 7.24823C115.539 7.24823 114.625 8.16229 114.484 9.61542ZM122.156 14.4982V6.24823H123.422V7.5451H123.453C123.758 6.69354 124.406 6.12323 125.438 6.12323C125.68 6.12323 125.891 6.15448 126 6.1701V7.49823C125.891 7.46698 125.57 7.40448 125.188 7.40448C124.273 7.40448 123.484 8.02167 123.484 9.4201V14.4982H122.156ZM127.312 14.4982V6.24823H128.641V14.4982H127.312ZM127.977 4.63885C127.477 4.63885 127.07 4.2326 127.07 3.7326C127.07 3.2326 127.477 2.82635 127.977 2.82635C128.477 2.82635 128.883 3.2326 128.883 3.7326C128.883 4.2326 128.477 4.63885 127.977 4.63885ZM130.609 14.4982V6.24823H131.906V7.58417C132.43 6.61542 133.344 6.09198 134.352 6.09198C135.484 6.09198 136.375 6.74823 136.719 7.57635C137.172 6.7326 138.094 6.09198 139.32 6.09198C140.828 6.09198 142.062 7.06073 142.062 9.09198V14.4982H140.734V9.09198C140.734 7.81073 139.891 7.31073 138.945 7.31073C137.734 7.31073 137 8.13104 137 9.24823V14.4982H135.672V8.95135C135.672 7.96698 134.93 7.31073 133.93 7.31073C132.891 7.31073 131.938 8.0451 131.938 9.46698V14.4982H130.609ZM147.438 14.6857C145.016 14.6857 143.609 12.8732 143.609 10.3889C143.609 7.88104 145.156 6.06073 147.344 6.06073C149.641 6.06073 151.094 7.82635 151.094 10.3889V10.756H144.922C144.984 12.3732 145.875 13.4826 147.438 13.4826C148.609 13.4826 149.375 12.8889 149.625 12.0295H150.953C150.641 13.6076 149.234 14.6857 147.438 14.6857ZM144.938 9.61542H149.766C149.625 8.16229 148.703 7.24823 147.344 7.24823C145.992 7.24823 145.078 8.16229 144.938 9.61542ZM153.938 9.6701V14.4982H152.609V6.24823H153.906V7.45917C154.477 6.52167 155.312 6.09198 156.359 6.09198C158.023 6.09198 159.391 7.17792 159.391 9.37323V14.4982H158.062V9.46698C158.062 8.03729 157.344 7.31073 156.109 7.31073C154.906 7.31073 153.938 8.00604 153.938 9.6701ZM164.961 6.24823V7.38885H163.289V12.4982C163.289 13.1389 163.516 13.3576 164.195 13.3576H164.961V14.4982H164.07C162.656 14.4982 161.961 13.881 161.961 12.6389V7.38885H160.492V6.24823H161.961V3.99823H163.289V6.24823H164.961ZM174.266 14.6545C173.195 14.6545 172.25 14.2014 171.656 13.2482H171.641V14.4982H170.344V2.8576H171.672V7.46698H171.688C172.219 6.5451 173.195 6.09198 174.266 6.09198C176.414 6.09198 177.844 7.82635 177.844 10.3732C177.844 12.9123 176.414 14.6545 174.266 14.6545ZM174.062 13.4592C175.492 13.4592 176.5 12.3967 176.5 10.3732C176.5 8.34979 175.492 7.27948 174.062 7.27948C172.531 7.27948 171.562 8.50604 171.562 10.3732C171.562 12.2404 172.531 13.4592 174.062 13.4592ZM182.422 14.6545C180.758 14.6545 179.391 13.5685 179.391 11.3732V6.24823H180.719V11.2795C180.719 12.7092 181.438 13.4357 182.672 13.4357C183.875 13.4357 184.844 12.7404 184.844 11.0764V6.24823H186.172V14.4982H184.875V13.2873C184.305 14.2248 183.469 14.6545 182.422 14.6545ZM188.141 14.4982V6.24823H189.469V14.4982H188.141ZM188.805 4.63885C188.305 4.63885 187.898 4.2326 187.898 3.7326C187.898 3.2326 188.305 2.82635 188.805 2.82635C189.305 2.82635 189.711 3.2326 189.711 3.7326C189.711 4.2326 189.305 4.63885 188.805 4.63885ZM192.766 2.8576V14.4982H191.438V2.8576H192.766ZM198.414 6.24823V7.38885H196.742V12.4982C196.742 13.1389 196.969 13.3576 197.648 13.3576H198.414V14.4982H197.523C196.109 14.4982 195.414 13.881 195.414 12.6389V7.38885H193.945V6.24823H195.414V3.99823H196.742V6.24823H198.414ZM205.609 14.4982L203.047 6.24823H204.438L205.477 9.87323C205.766 10.8732 206.023 11.9357 206.297 12.9514C206.57 11.9357 206.836 10.8732 207.125 9.87323L208.172 6.24823H209.484L210.516 9.87323C210.797 10.8654 211.055 11.9045 211.328 12.9123C211.602 11.9045 211.867 10.8654 212.156 9.87323L213.219 6.24823H214.609L212.047 14.4982H210.656L209.57 10.7482C209.312 9.84198 209.07 8.88885 208.828 7.95917C208.586 8.88885 208.344 9.84198 208.078 10.7482L206.969 14.4982H205.609ZM215.828 14.4982V6.24823H217.156V14.4982H215.828ZM216.492 4.63885C215.992 4.63885 215.586 4.2326 215.586 3.7326C215.586 3.2326 215.992 2.82635 216.492 2.82635C216.992 2.82635 217.398 3.2326 217.398 3.7326C217.398 4.2326 216.992 4.63885 216.492 4.63885ZM222.883 6.24823V7.38885H221.211V12.4982C221.211 13.1389 221.438 13.3576 222.117 13.3576H222.883V14.4982H221.992C220.578 14.4982 219.883 13.881 219.883 12.6389V7.38885H218.414V6.24823H219.883V3.99823H221.211V6.24823H222.883ZM225.594 9.6701V14.4982H224.266V2.8576H225.594V7.40448C226.164 6.50604 226.992 6.09198 228.016 6.09198C229.68 6.09198 231.047 7.17792 231.047 9.37323V14.4982H229.719V9.46698C229.719 8.03729 229 7.31073 227.766 7.31073C226.562 7.31073 225.594 8.00604 225.594 9.6701ZM242.117 14.6857C238.898 14.6857 236.734 12.1857 236.734 8.68573C236.734 5.16229 238.891 2.6701 242.117 2.6701C244.555 2.6701 246.484 4.19354 246.914 6.62323H245.477C245.102 4.92792 243.812 3.9826 242.117 3.9826C239.664 3.9826 238.141 5.90448 238.141 8.68573C238.141 11.4514 239.664 13.3732 242.117 13.3732C243.797 13.3732 245.086 12.4357 245.484 10.7482H246.914C246.492 13.1701 244.555 14.6857 242.117 14.6857ZM252.234 2.8576V14.4982H250.875V4.31073H250.867L247.969 6.2326V4.7951L250.875 2.8576H252.234ZM262.297 14.6545C261.227 14.6545 260.281 14.2014 259.688 13.2482H259.672V14.4982H258.375V2.8576H259.703V7.46698H259.719C260.25 6.5451 261.227 6.09198 262.297 6.09198C264.445 6.09198 265.875 7.82635 265.875 10.3732C265.875 12.9123 264.445 14.6545 262.297 14.6545ZM262.094 13.4592C263.523 13.4592 264.531 12.3967 264.531 10.3732C264.531 8.34979 263.523 7.27948 262.094 7.27948C260.562 7.27948 259.594 8.50604 259.594 10.3732C259.594 12.2404 260.562 13.4592 262.094 13.4592ZM267.172 17.7639V16.592H267.984C268.492 16.592 268.836 16.2873 269.102 15.5998L269.555 14.4279L266.359 6.24823H267.797L269.578 10.9982C269.812 11.6154 270.031 12.2326 270.242 12.8498C270.461 12.2326 270.688 11.6154 270.914 10.9982L272.664 6.24823H274.078L270.273 16.0295C269.844 17.1389 269.023 17.7639 267.984 17.7639H267.172ZM278.703 4.1076V2.8576H287.688V4.1076H283.906V14.4982H282.5V4.1076H278.703ZM290.391 9.6701V14.4982H289.062V2.8576H290.391V7.40448C290.961 6.50604 291.789 6.09198 292.812 6.09198C294.477 6.09198 295.844 7.17792 295.844 9.37323V14.4982H294.516V9.46698C294.516 8.03729 293.797 7.31073 292.562 7.31073C291.359 7.31073 290.391 8.00604 290.391 9.6701ZM301.219 14.6857C298.797 14.6857 297.391 12.8732 297.391 10.3889C297.391 7.88104 298.938 6.06073 301.125 6.06073C303.422 6.06073 304.875 7.82635 304.875 10.3889V10.756H298.703C298.766 12.3732 299.656 13.4826 301.219 13.4826C302.391 13.4826 303.156 12.8889 303.406 12.0295H304.734C304.422 13.6076 303.016 14.6857 301.219 14.6857ZM298.719 9.61542H303.547C303.406 8.16229 302.484 7.24823 301.125 7.24823C299.773 7.24823 298.859 8.16229 298.719 9.61542ZM309.266 14.6857C307.5 14.6857 306.109 13.8264 306 12.0295H307.312C307.406 13.0139 308.078 13.5451 309.234 13.5451C310.375 13.5451 311.086 13.0139 311.086 12.2795C311.086 11.6545 310.578 11.2951 309.844 11.1232L308.516 10.8107C306.984 10.4514 306.188 9.6701 306.188 8.46698C306.188 7.06073 307.414 6.06073 309.18 6.06073C310.898 6.06073 312.188 7.07635 312.234 8.71698H310.938C310.922 7.84198 310.242 7.20135 309.18 7.20135C308.164 7.20135 307.516 7.76385 307.516 8.46698C307.516 9.09198 308 9.45917 308.797 9.64667L310.125 9.95917C311.703 10.3342 312.422 11.0607 312.422 12.2482C312.422 13.7795 311.062 14.6857 309.266 14.6857ZM313.812 17.7639V16.592H314.625C315.133 16.592 315.477 16.2873 315.742 15.5998L316.195 14.4279L313 6.24823H314.438L316.219 10.9982C316.453 11.6154 316.672 12.2326 316.883 12.8498C317.102 12.2326 317.328 11.6154 317.555 10.9982L319.305 6.24823H320.719L316.914 16.0295C316.484 17.1389 315.664 17.7639 314.625 17.7639H313.812ZM324.656 14.6857C322.891 14.6857 321.5 13.8264 321.391 12.0295H322.703C322.797 13.0139 323.469 13.5451 324.625 13.5451C325.766 13.5451 326.477 13.0139 326.477 12.2795C326.477 11.6545 325.969 11.2951 325.234 11.1232L323.906 10.8107C322.375 10.4514 321.578 9.6701 321.578 8.46698C321.578 7.06073 322.805 6.06073 324.57 6.06073C326.289 6.06073 327.578 7.07635 327.625 8.71698H326.328C326.312 7.84198 325.633 7.20135 324.57 7.20135C323.555 7.20135 322.906 7.76385 322.906 8.46698C322.906 9.09198 323.391 9.45917 324.188 9.64667L325.516 9.95917C327.094 10.3342 327.812 11.0607 327.812 12.2482C327.812 13.7795 326.453 14.6857 324.656 14.6857ZM330.148 14.631C329.602 14.631 329.172 14.2014 329.172 13.6545C329.172 13.1076 329.602 12.6779 330.148 12.6779C330.695 12.6779 331.125 13.1076 331.125 13.6545C331.125 14.2014 330.695 14.631 330.148 14.631Z" fill="black" fill-opacity="0.4"/>
</svg>
