<svg width="106" height="14" viewBox="0 0 106 14" fill="none" xmlns="http://www.w3.org/2000/svg">
<path d="M0.84375 11.75V3.5H1.73437V4.45312H1.84375C1.91146 4.34896 2.00521 4.21615 2.125 4.05469C2.2474 3.89062 2.42188 3.74479 2.64844 3.61719C2.8776 3.48698 3.1875 3.42188 3.57813 3.42188C4.08333 3.42188 4.52865 3.54818 4.91406 3.80078C5.29948 4.05339 5.60026 4.41146 5.81641 4.875C6.03255 5.33854 6.14062 5.88542 6.14062 6.51563C6.14062 7.15104 6.03255 7.70182 5.81641 8.16797C5.60026 8.63151 5.30078 8.99089 4.91797 9.24609C4.53516 9.4987 4.09375 9.625 3.59375 9.625C3.20833 9.625 2.89974 9.5612 2.66797 9.43359C2.4362 9.30339 2.25781 9.15625 2.13281 8.99219C2.00781 8.82552 1.91146 8.6875 1.84375 8.57812H1.76563V11.75H0.84375ZM1.75 6.5C1.75 6.95312 1.81641 7.35286 1.94922 7.69922C2.08203 8.04297 2.27604 8.3125 2.53125 8.50781C2.78646 8.70052 3.09896 8.79688 3.46875 8.79688C3.85417 8.79688 4.17578 8.69531 4.43359 8.49219C4.69401 8.28646 4.88932 8.01042 5.01953 7.66406C5.15234 7.3151 5.21875 6.92708 5.21875 6.5C5.21875 6.07812 5.15365 5.69792 5.02344 5.35937C4.89583 5.01823 4.70182 4.7487 4.44141 4.55078C4.18359 4.35026 3.85938 4.25 3.46875 4.25C3.09375 4.25 2.77865 4.34505 2.52344 4.53516C2.26823 4.72266 2.07552 4.98568 1.94531 5.32422C1.8151 5.66016 1.75 6.05208 1.75 6.5ZM9.98438 9.625C9.44271 9.625 8.96745 9.49609 8.55859 9.23828C8.15234 8.98047 7.83464 8.61979 7.60547 8.15625C7.37891 7.69271 7.26563 7.15104 7.26563 6.53125C7.26563 5.90625 7.37891 5.36068 7.60547 4.89453C7.83464 4.42839 8.15234 4.06641 8.55859 3.80859C8.96745 3.55078 9.44271 3.42188 9.98438 3.42188C10.526 3.42188 11 3.55078 11.4063 3.80859C11.8151 4.06641 12.1328 4.42839 12.3594 4.89453C12.5885 5.36068 12.7031 5.90625 12.7031 6.53125C12.7031 7.15104 12.5885 7.69271 12.3594 8.15625C12.1328 8.61979 11.8151 8.98047 11.4063 9.23828C11 9.49609 10.526 9.625 9.98438 9.625ZM9.98438 8.79688C10.3958 8.79688 10.7344 8.69141 11 8.48047C11.2656 8.26953 11.4622 7.99219 11.5898 7.64844C11.7174 7.30469 11.7813 6.93229 11.7813 6.53125C11.7813 6.13021 11.7174 5.75651 11.5898 5.41016C11.4622 5.0638 11.2656 4.78385 11 4.57031C10.7344 4.35677 10.3958 4.25 9.98438 4.25C9.57292 4.25 9.23438 4.35677 8.96875 4.57031C8.70313 4.78385 8.50651 5.0638 8.37891 5.41016C8.2513 5.75651 8.1875 6.13021 8.1875 6.53125C8.1875 6.93229 8.2513 7.30469 8.37891 7.64844C8.50651 7.99219 8.70313 8.26953 8.96875 8.48047C9.23438 8.69141 9.57292 8.79688 9.98438 8.79688ZM15.2656 9.5L13.4375 3.5H14.4063L15.7031 8.09375H15.7656L17.0469 3.5H18.0313L19.2969 8.07812H19.3594L20.6563 3.5H21.625L19.7969 9.5H18.8906L17.5781 4.89062H17.4844L16.1719 9.5H15.2656ZM25.1553 9.625C24.5771 9.625 24.0785 9.4974 23.6592 9.24219C23.2425 8.98438 22.9209 8.625 22.6943 8.16406C22.4704 7.70052 22.3584 7.16146 22.3584 6.54688C22.3584 5.93229 22.4704 5.39062 22.6943 4.92187C22.9209 4.45052 23.236 4.08333 23.6396 3.82031C24.0459 3.55469 24.5199 3.42188 25.0615 3.42188C25.374 3.42188 25.6826 3.47396 25.9873 3.57812C26.292 3.68229 26.5693 3.85156 26.8193 4.08594C27.0693 4.31771 27.2686 4.625 27.417 5.00781C27.5654 5.39062 27.6396 5.86198 27.6396 6.42187V6.8125H23.0146V6.01562H26.7021C26.7021 5.67708 26.6344 5.375 26.499 5.10937C26.3662 4.84375 26.1761 4.63411 25.9287 4.48047C25.6839 4.32682 25.3949 4.25 25.0615 4.25C24.6943 4.25 24.3766 4.34115 24.1084 4.52344C23.8428 4.70312 23.6383 4.9375 23.4951 5.22656C23.3519 5.51562 23.2803 5.82552 23.2803 6.15625V6.6875C23.2803 7.14063 23.3584 7.52474 23.5146 7.83984C23.6735 8.15234 23.8936 8.39062 24.1748 8.55469C24.4561 8.71615 24.7829 8.79688 25.1553 8.79688C25.3975 8.79688 25.6162 8.76302 25.8115 8.69531C26.0094 8.625 26.18 8.52083 26.3232 8.38281C26.4665 8.24219 26.5771 8.06771 26.6553 7.85937L27.5459 8.10938C27.4521 8.41146 27.2946 8.67708 27.0732 8.90625C26.8519 9.13281 26.5785 9.3099 26.2529 9.4375C25.9274 9.5625 25.5615 9.625 25.1553 9.625ZM29.042 9.5V3.5H29.9326V4.40625H29.9951C30.1045 4.10938 30.3024 3.86849 30.5889 3.68359C30.8753 3.4987 31.1982 3.40625 31.5576 3.40625C31.6253 3.40625 31.71 3.40755 31.8115 3.41016C31.9131 3.41276 31.9899 3.41667 32.042 3.42188V4.35937C32.0107 4.35156 31.9391 4.33984 31.8271 4.32422C31.7178 4.30599 31.6019 4.29687 31.4795 4.29687C31.1878 4.29687 30.9274 4.35807 30.6982 4.48047C30.4717 4.60026 30.292 4.76693 30.1592 4.98047C30.029 5.19141 29.9639 5.43229 29.9639 5.70312V9.5H29.042ZM35.4678 9.625C34.8896 9.625 34.391 9.4974 33.9717 9.24219C33.555 8.98438 33.2334 8.625 33.0068 8.16406C32.7829 7.70052 32.6709 7.16146 32.6709 6.54688C32.6709 5.93229 32.7829 5.39062 33.0068 4.92187C33.2334 4.45052 33.5485 4.08333 33.9521 3.82031C34.3584 3.55469 34.8324 3.42188 35.374 3.42188C35.6865 3.42188 35.9951 3.47396 36.2998 3.57812C36.6045 3.68229 36.8818 3.85156 37.1318 4.08594C37.3818 4.31771 37.5811 4.625 37.7295 5.00781C37.8779 5.39062 37.9521 5.86198 37.9521 6.42187V6.8125H33.3271V6.01562H37.0146C37.0146 5.67708 36.9469 5.375 36.8115 5.10937C36.6787 4.84375 36.4886 4.63411 36.2412 4.48047C35.9964 4.32682 35.7074 4.25 35.374 4.25C35.0068 4.25 34.6891 4.34115 34.4209 4.52344C34.1553 4.70312 33.9508 4.9375 33.8076 5.22656C33.6644 5.51562 33.5928 5.82552 33.5928 6.15625V6.6875C33.5928 7.14063 33.6709 7.52474 33.8271 7.83984C33.986 8.15234 34.2061 8.39062 34.4873 8.55469C34.7686 8.71615 35.0954 8.79688 35.4678 8.79688C35.71 8.79688 35.9287 8.76302 36.124 8.69531C36.3219 8.625 36.4925 8.52083 36.6357 8.38281C36.779 8.24219 36.8896 8.06771 36.9678 7.85937L37.8584 8.10938C37.7646 8.41146 37.6071 8.67708 37.3857 8.90625C37.1644 9.13281 36.891 9.3099 36.5654 9.4375C36.2399 9.5625 35.874 9.625 35.4678 9.625ZM41.6201 9.625C41.1201 9.625 40.6787 9.4987 40.2959 9.24609C39.9131 8.99089 39.6136 8.63151 39.3975 8.16797C39.1813 7.70182 39.0732 7.15104 39.0732 6.51563C39.0732 5.88542 39.1813 5.33854 39.3975 4.875C39.6136 4.41146 39.9144 4.05339 40.2998 3.80078C40.6852 3.54818 41.1305 3.42188 41.6357 3.42188C42.0264 3.42188 42.335 3.48698 42.5615 3.61719C42.7907 3.74479 42.9652 3.89062 43.085 4.05469C43.2074 4.21615 43.3024 4.34896 43.3701 4.45312H43.4482V1.5H44.3701V9.5H43.4795V8.57812H43.3701C43.3024 8.6875 43.2061 8.82552 43.0811 8.99219C42.9561 9.15625 42.7777 9.30339 42.5459 9.43359C42.3141 9.5612 42.0055 9.625 41.6201 9.625ZM41.7451 8.79688C42.1149 8.79688 42.4274 8.70052 42.6826 8.50781C42.9378 8.3125 43.1318 8.04297 43.2646 7.69922C43.3975 7.35286 43.4639 6.95312 43.4639 6.5C43.4639 6.05208 43.3988 5.66016 43.2686 5.32422C43.1383 4.98568 42.9456 4.72266 42.6904 4.53516C42.4352 4.34505 42.1201 4.25 41.7451 4.25C41.3545 4.25 41.029 4.35026 40.7686 4.55078C40.5107 4.7487 40.3167 5.01823 40.1865 5.35937C40.0589 5.69792 39.9951 6.07812 39.9951 6.5C39.9951 6.92708 40.0602 7.3151 40.1904 7.66406C40.3232 8.01042 40.5186 8.28646 40.7764 8.49219C41.0368 8.69531 41.3597 8.79688 41.7451 8.79688ZM49.4053 9.5V1.5H50.3271V4.45312H50.4053C50.473 4.34896 50.5667 4.21615 50.6865 4.05469C50.8089 3.89062 50.9834 3.74479 51.21 3.61719C51.4391 3.48698 51.749 3.42188 52.1396 3.42188C52.6449 3.42188 53.0902 3.54818 53.4756 3.80078C53.861 4.05339 54.1618 4.41146 54.3779 4.875C54.5941 5.33854 54.7021 5.88542 54.7021 6.51563C54.7021 7.15104 54.5941 7.70182 54.3779 8.16797C54.1618 8.63151 53.8623 8.99089 53.4795 9.24609C53.0967 9.4987 52.6553 9.625 52.1553 9.625C51.7699 9.625 51.4613 9.5612 51.2295 9.43359C50.9977 9.30339 50.8193 9.15625 50.6943 8.99219C50.5693 8.82552 50.473 8.6875 50.4053 8.57812H50.2959V9.5H49.4053ZM50.3115 6.5C50.3115 6.95312 50.3779 7.35286 50.5107 7.69922C50.6436 8.04297 50.8376 8.3125 51.0928 8.50781C51.348 8.70052 51.6605 8.79688 52.0303 8.79688C52.4157 8.79688 52.7373 8.69531 52.9951 8.49219C53.2555 8.28646 53.4508 8.01042 53.5811 7.66406C53.7139 7.3151 53.7803 6.92708 53.7803 6.5C53.7803 6.07812 53.7152 5.69792 53.585 5.35937C53.4574 5.01823 53.2633 4.7487 53.0029 4.55078C52.7451 4.35026 52.4209 4.25 52.0303 4.25C51.6553 4.25 51.3402 4.34505 51.085 4.53516C50.8298 4.72266 50.637 4.98568 50.5068 5.32422C50.3766 5.66016 50.3115 6.05208 50.3115 6.5ZM56.4912 11.75C56.335 11.75 56.1956 11.737 56.0732 11.7109C55.9508 11.6875 55.8662 11.6641 55.8193 11.6406L56.0537 10.8281C56.2777 10.8854 56.4756 10.9063 56.6475 10.8906C56.8193 10.875 56.9717 10.7982 57.1045 10.6602C57.2399 10.5247 57.3636 10.3047 57.4756 10L57.6475 9.53125L55.4287 3.5H56.4287L58.085 8.28125H58.1475L59.8037 3.5H60.8037L58.2568 10.375C58.1423 10.6849 58.0003 10.9414 57.8311 11.1445C57.6618 11.3503 57.4652 11.5026 57.2412 11.6016C57.0199 11.7005 56.7699 11.75 56.4912 11.75Z" fill="black" fill-opacity="0.4"/>
<g clip-path="url(#clip0_13096_51027)">
<path fill-rule="evenodd" clip-rule="evenodd" d="M78.0506 3.72697C76.0812 3.72697 74.6692 5.26661 74.6692 7.06339C74.6692 8.88525 76.0385 10.4538 78.0737 10.4538C79.9168 10.4538 81.4262 9.04597 81.4262 7.09811C81.4262 4.86804 79.67 3.72375 78.0512 3.72375L78.0506 3.72697ZM85.4043 3.72697C83.4371 3.72697 82.026 5.26661 82.026 7.06339C82.026 8.88525 83.3953 10.4538 85.4309 10.4538C87.2695 10.4538 88.7802 9.04597 88.7802 7.09811C88.7802 4.86804 87.0252 3.72375 85.4052 3.72375L85.4071 3.72697H85.4043ZM96.8246 10.2578H98.3064V0.341681H96.8246V10.2578ZM92.7486 5.04964C93.6357 5.04964 94.5454 5.80757 94.5454 7.09972C94.5454 8.41757 93.637 9.13757 92.7286 9.13757C91.7644 9.13757 90.8685 8.35972 90.8685 7.11257C90.8685 5.82043 91.8007 5.049 92.7489 5.049L92.7486 5.04964ZM78.0705 5.04964C79.0393 5.04964 79.9573 5.83329 79.9573 7.09329C79.9573 8.334 79.0432 9.13757 78.066 9.13757C76.9957 9.13757 76.1471 8.28032 76.1471 7.08686C76.1471 5.92329 76.9828 5.05447 78.0725 5.05447V5.04932L78.0705 5.04964ZM85.4242 5.04964C86.3926 5.04964 87.311 5.83329 87.311 7.09329C87.311 8.334 86.3965 9.13757 85.4197 9.13757C84.3461 9.13757 83.4975 8.28032 83.4975 7.08686C83.4975 5.92329 84.3332 5.05447 85.4197 5.05447L85.4229 5.04932L85.4242 5.04964ZM102.111 3.72536C100.406 3.72536 98.9737 5.08179 98.9737 7.08686C98.9737 9.20668 100.57 10.4619 102.275 10.4619C103.693 10.4619 104.567 9.684 105.088 8.9865L103.924 8.21282C103.622 8.68211 103.114 9.13854 102.272 9.13854C101.327 9.13854 100.892 8.62104 100.623 8.11961L105.143 6.24214L104.909 5.69379C104.473 4.62022 103.456 3.72247 102.111 3.72247L102.108 3.72568L102.111 3.72536ZM74.1195 4.76036H69.3174V6.18686H72.7226C72.5555 8.18614 70.8927 9.03793 69.3241 9.03793C67.3175 9.03793 65.5657 7.45843 65.5657 5.24507C65.5657 3.08925 67.2307 1.42907 69.3264 1.42907C70.94 1.42907 71.8914 2.45989 71.8914 2.45989L72.8878 1.42714C72.8878 1.42714 71.6082 1.97428e-06 69.2714 1.97428e-06C66.3008 -0.00256945 64 2.50714 64 5.21679C64 7.87179 66.1632 10.4625 69.3479 10.4625C72.1508 10.4625 74.2015 8.54357 74.2015 5.70536C74.2015 5.1075 74.1137 4.76036 74.1137 4.76036H74.1195ZM102.171 5.0175C102.786 5.0175 103.228 5.34472 103.416 5.73686L100.404 6.99686C100.274 6.02422 101.197 5.02168 102.171 5.02168L102.171 5.0175ZM92.6187 3.73179C90.8107 3.73179 89.3893 5.319 89.3893 7.09329C89.3893 9.11829 91.035 10.4619 92.5875 10.4619C93.5454 10.4619 94.0532 10.0826 94.4325 9.64543V10.3076C94.4325 11.4705 93.7254 12.1648 92.6647 12.1648C91.6361 12.1648 91.1218 11.3998 90.9418 10.9675L89.65 11.5071C90.1087 12.4779 91.0321 13.4897 92.6753 13.4897C94.4727 13.4897 95.843 12.357 95.843 9.98293V3.93686H94.4329V4.50675C93.9989 4.04389 93.4062 3.73532 92.6187 3.73532V3.73211V3.73179Z" fill="black" fill-opacity="0.6"/>
</g>
<defs>
<clipPath id="clip0_13096_51027">
<rect width="41.1429" height="13.5" fill="white" transform="translate(64)"/>
</clipPath>
</defs>
</svg>